<svg width="42" height="74" viewBox="0 0 42 74" fill="none" xmlns="http://www.w3.org/2000/svg">
<path d="M1.62465 34.7376L36.4559 1.55011C37.0371 0.996078 37.8092 0.687012 38.6122 0.687012C39.4151 0.687012 40.1872 0.996078 40.7684 1.55011L40.8059 1.58761C41.0886 1.85619 41.3137 2.17948 41.4676 2.53781C41.6214 2.89614 41.7007 3.28203 41.7007 3.67198C41.7007 4.06194 41.6214 4.44782 41.4676 4.80615C41.3137 5.16448 41.0886 5.48777 40.8059 5.75636L8.0059 37.0064L40.8059 68.2439C41.0886 68.5124 41.3137 68.8357 41.4676 69.1941C41.6214 69.5524 41.7007 69.9383 41.7007 70.3282C41.7007 70.7182 41.6214 71.1041 41.4676 71.4624C41.3137 71.8207 41.0886 72.144 40.8059 72.4126L40.7684 72.4501C40.1872 73.0041 39.4151 73.3132 38.6122 73.3132C37.8092 73.3132 37.0371 73.0041 36.4559 72.4501L1.62465 39.2626C1.31832 38.9708 1.07445 38.6197 0.907824 38.2308C0.741195 37.8419 0.655273 37.4232 0.655273 37.0001C0.655273 36.577 0.741195 36.1583 0.907824 35.7694C1.07445 35.3805 1.31832 35.0295 1.62465 34.7376Z" fill="#0A3863"/>
</svg>
