<svg width="26" height="27" viewBox="0 0 26 27" fill="none" xmlns="http://www.w3.org/2000/svg">
<mask id="mask0_1_2289" style="mask-type:luminance" maskUnits="userSpaceOnUse" x="0" y="0" width="26" height="27">
<path d="M0 0H26V26.1307H0V0Z" fill="white"/>
</mask>
<g mask="url(#mask0_1_2289)">
<path d="M0.781149 26.0898C0.594016 26.0898 0.410285 26.019 0.270785 25.8863C0.0761661 25.6998 -0.00208987 25.4229 0.0680002 25.1629L1.71137 19.0447C0.699491 17.1747 0.16599 15.0666 0.16599 12.9271C0.16599 5.8215 5.96033 0.0407715 13.083 0.0407715C20.2049 0.0407715 26 5.8215 26 12.9271C26 20.0328 20.2049 25.8135 13.083 25.8135C10.8932 25.8135 8.74079 25.2603 6.83679 24.2096L1.00435 26.0557C0.930856 26.0789 0.855322 26.0898 0.781149 26.0898ZM6.92185 22.6737C7.05183 22.6737 7.18112 22.7078 7.29544 22.7751C9.04293 23.7993 11.0442 24.3409 13.083 24.3409C19.3911 24.3409 24.5233 19.2209 24.5233 12.9271C24.5233 6.63332 19.3911 1.51334 13.083 1.51334C6.77419 1.51334 1.64196 6.63332 1.64196 12.9271C1.64196 14.9135 2.16117 16.8685 3.14244 18.5826C3.23906 18.7507 3.26492 18.9508 3.21457 19.1386L1.84271 24.245L6.69865 22.7084C6.77147 22.6853 6.847 22.6737 6.92185 22.6737Z" fill="#1F3A16"/>
</g>
<path d="M13.0831 19.9223C12.6754 19.9223 12.3447 19.593 12.3447 19.186V11.8742C12.3447 11.4673 12.6754 11.1379 13.0831 11.1379C13.4907 11.1379 13.8207 11.4673 13.8207 11.8742V19.186C13.8207 19.593 13.4907 19.9223 13.0831 19.9223Z" fill="#1F3A16"/>
<path d="M13.083 9.2048C12.2535 9.2048 11.5791 8.5318 11.5791 7.70433C11.5791 6.87686 12.2535 6.20386 13.083 6.20386C13.9125 6.20386 14.5868 6.87686 14.5868 7.70433C14.5868 8.5318 13.9125 9.2048 13.083 9.2048ZM13.083 7.18035C12.7931 7.18035 12.557 7.41512 12.557 7.70433C12.557 7.99354 12.7931 8.22898 13.083 8.22898C13.3729 8.22898 13.6083 7.99354 13.6083 7.70433C13.6083 7.41512 13.3729 7.18035 13.083 7.18035Z" fill="#1F3A16"/>
</svg>
