<svg width="35" height="35" viewBox="0 0 35 35" fill="none" xmlns="http://www.w3.org/2000/svg">
<rect x="0.5" y="0.5" width="34" height="34" rx="4.5" stroke="#093964"/>
<path d="M25.8613 23.1188C24.7249 22.7488 23.2714 22.2729 21.8441 21.9292C21.5534 21.8499 20.8926 21.8499 20.6019 22.3258L19.7033 23.7004C19.624 23.8062 19.5183 23.859 19.4126 23.8855C19.1483 23.9119 18.8576 23.859 18.6461 23.674C18.0647 23.3038 15.8183 21.2419 14.4968 19.9729C13.1753 18.5983 11.1666 16.3777 10.7437 15.7962C10.5852 15.5846 10.5059 15.2938 10.5322 15.0294C10.5587 14.8973 10.6116 14.7916 10.7173 14.7387L12.0917 13.8399C12.4088 13.6283 12.5674 12.8883 12.4881 12.5974C12.2237 11.4872 11.8802 10.2446 11.3252 8.60565C11.193 8.26196 10.6644 7.83894 9.81866 8.12979C8.68221 8.60565 7.62509 9.29288 6.7265 10.1918C6.46214 10.4561 6.22428 10.7205 6.01292 11.0113C5.96008 11.0642 5.93358 11.1435 5.93358 11.1963C5.74857 14.5007 7.96863 18.942 11.5895 22.5373C15.0782 26.1854 19.5448 28.5382 22.9013 28.5382C23.0334 28.5382 23.1392 28.5382 23.2714 28.5382C23.3506 28.5382 23.4034 28.5117 23.4562 28.4589C23.7471 28.221 24.0113 27.983 24.2757 27.7451C24.9892 27.0313 25.5706 26.2119 26.0463 25.3395C26.1522 25.1015 26.2579 24.8901 26.3635 24.6521C26.4692 24.2821 26.6807 23.3832 25.8613 23.1188ZM10.083 8.71133C10.3209 8.632 10.6381 8.68498 10.7173 8.84351C11.246 10.4561 11.6158 11.6722 11.8537 12.7561C11.9067 12.9411 11.8537 13.2055 11.7217 13.3112L11.4045 13.5227C10.4002 12.1744 9.79231 10.5883 9.63364 8.92284C9.63364 8.92284 9.92449 8.79067 10.083 8.71133ZM25.7556 24.3877C25.7028 24.5464 25.6235 24.6786 25.5706 24.8108C22.4785 24.3084 21.2892 23.436 20.9455 23.1188L21.1833 22.7488C21.3155 22.5636 21.5534 22.5636 21.7384 22.6166C23.0864 22.9338 24.5399 23.4097 25.65 23.7534C25.835 23.8062 25.835 24.1499 25.7556 24.3877Z" fill="#093964"/>
<path d="M15.8445 14.3425C18.2761 14.3425 20.2583 16.3252 20.2583 18.7573C20.2583 18.9423 20.4168 19.0745 20.5753 19.0745C20.734 19.0745 20.8925 18.9158 20.8925 18.7573C20.8925 15.9551 18.6196 13.6816 15.8182 13.6816C15.6332 13.6816 15.501 13.8402 15.501 13.9988C15.501 14.1575 15.6595 14.3425 15.8445 14.3425Z" fill="#093964"/>
</svg>
