<svg width="32" height="32" viewBox="0 0 32 32" fill="none" xmlns="http://www.w3.org/2000/svg">
<path d="M23.32 12.8L7.46668 22.36C6.53334 22.92 5.33334 22.2533 5.33334 21.16V10.4933C5.33334 5.84 10.36 2.93333 14.4 5.25333L20.52 8.77333L23.3067 10.3733C24.2267 10.92 24.24 12.2533 23.32 12.8Z" fill="white"/>
<path d="M24.12 20.6133L18.72 23.7333L13.3333 26.84C11.4 27.9467 9.21334 27.72 7.62667 26.6C6.85334 26.0667 6.94667 24.88 7.76 24.4L24.7067 14.24C25.5067 13.76 26.56 14.2133 26.7067 15.1333C27.04 17.2 26.1867 19.4267 24.12 20.6133Z" fill="white"/>
</svg>
