<svg width="35" height="35" viewBox="0 0 35 35" fill="none" xmlns="http://www.w3.org/2000/svg">
<path d="M29.076 0H5.92396C2.65225 0 0 2.65225 0 5.92396V29.0761C0 32.3478 2.65225 35 5.92396 35H29.076C32.3478 35 35 32.3478 35 29.0761V5.92396C35 2.65225 32.3478 0 29.076 0Z" fill="#02B0F4"/>
<path d="M26.285 11.9812C26.2406 11.7972 26.1729 11.7422 26.0629 11.6872C25.8238 11.5687 25.388 11.6724 25.388 11.6724C25.388 11.6724 9.95819 15.6266 9.04844 16.1407C8.85168 16.2507 8.78398 16.3205 8.7459 16.4031C8.5576 16.8114 8.99978 17.042 8.99978 17.042L12.7276 18.6584C12.7276 18.6584 12.8694 18.6923 12.9244 18.6648C13.8511 18.1951 22.2525 13.9362 22.7264 13.8113C22.8005 13.7965 22.8513 13.8261 22.8322 13.8748C22.5889 14.4989 15.1247 19.9701 15.1247 19.9701C15.1247 19.9701 15.0951 19.9998 15.0761 20.0378L15.0676 20.0315L14.3483 23.8122C14.3483 23.8122 14.088 24.9674 15.3659 23.9074C16.2693 23.1606 17.1304 22.5449 17.562 22.2487C18.7976 23.2875 20.1262 24.4321 20.6911 25.0182C20.9746 25.3123 21.2285 25.38 21.4422 25.3927C22.0283 25.4265 22.2504 24.8003 22.2504 24.8003C22.2504 24.8003 26.0037 14.1118 26.2322 12.654C26.2554 12.5123 26.2745 12.4213 26.285 12.3219C26.2999 12.1843 26.2999 12.0468 26.285 11.9791V11.9812Z" fill="white"/>
</svg>
