<svg width="35" height="35" viewBox="0 0 35 35" fill="none" xmlns="http://www.w3.org/2000/svg">
<path d="M29.076 0H5.92396C2.65225 0 0 2.65225 0 5.92396V29.076C0 32.3478 2.65225 35 5.92396 35H29.076C32.3478 35 35 32.3478 35 29.076V5.92396C35 2.65225 32.3478 0 29.076 0Z" fill="#FF0109"/>
<path d="M25.8958 12.4192H9.10775C8.12974 12.4192 7.33691 13.212 7.33691 14.19V21.6415C7.33691 22.6195 8.12974 23.4124 9.10775 23.4124H25.8958C26.8738 23.4124 27.6667 22.6195 27.6667 21.6415V14.19C27.6667 13.212 26.8738 12.4192 25.8958 12.4192Z" fill="white"/>
<path d="M21.3749 17.5011C21.6245 17.6387 21.6309 17.9941 21.3854 18.1401L18.8614 19.6591L16.3374 21.1782C16.0941 21.3242 15.7831 21.1528 15.7767 20.8693L15.7238 17.9222L15.6709 14.975C15.6667 14.6915 15.9714 14.5074 16.2189 14.6449L18.7979 16.073L21.377 17.5011H21.3749Z" fill="#ED1C24"/>
</svg>
